<svg xmlns="http://www.w3.org/2000/svg" width="15.9" height="19" viewBox="0 0 15.9 19"><title>login</title><path d="M13.8,6A5.8,5.8,0,0,0,12,1.8,5.8,5.8,0,0,0,7.8,0,5.8,5.8,0,0,0,3.5,1.8,5.8,5.8,0,0,0,1.7,6V8.6H1.3A1.3,1.3,0,0,0,.4,9a1.2,1.2,0,0,0-.4.9v7.8a1,1,0,0,0,.4.9,1,1,0,0,0,.9.4H14.2a1.3,1.3,0,0,0,1-.4,1.2,1.2,0,0,0,.3-.9V9.9a1.6,1.6,0,0,0-.3-.9,1.8,1.8,0,0,0-1-.4h-.4V6ZM11.2,8.6H4.3V6a3.7,3.7,0,0,1,1-2.4,3.3,3.3,0,0,1,2.5-1,3.3,3.3,0,0,1,2.4,1,3.3,3.3,0,0,1,1,2.4V8.6Z" style="fill:#156570"/></svg>